<svg id="left-quotes-sign" xmlns="http://www.w3.org/2000/svg" width="80.047" height="69.153" viewBox="0 0 80.047 69.153">
  <g id="Group_77" data-name="Group 77">
    <path id="Path_94" data-name="Path 94" d="M.017,84.669A19.105,19.105,0,1,0,12.9,66.656c4.288-24.593,23.466-40.454,5.688-27.4C-1.125,53.73,0,84.087.018,84.643.018,84.652.017,84.659.017,84.669Z" transform="translate(0 -34.571)" fill="#f9f9f9"/>
    <path id="Path_95" data-name="Path 95" d="M266.078,84.669a19.105,19.105,0,1,0,12.883-18.013c4.288-24.593,23.466-40.454,5.688-27.4-19.713,14.474-18.593,44.831-18.571,45.388C266.079,84.652,266.078,84.659,266.078,84.669Z" transform="translate(-224.141 -34.571)" fill="#f9f9f9"/>
  </g>
</svg>
